<svg width="153" height="70" viewBox="0 0 153 70" fill="none" xmlns="http://www.w3.org/2000/svg">
<path d="M39.3549 0.0599213C39.1826 0.0886459 38.9384 0.260979 38.8235 0.433304C38.6225 0.763603 38.5076 2.35764 36.9566 28.1782C35.7791 47.7806 35.8652 46.6604 35.6785 46.4737C35.6355 46.445 35.377 43.0846 35.1041 39.0205C34.5297 30.7488 34.4866 30.3323 34.2568 30.1312C33.9122 29.8584 32.8782 29.6717 32.591 29.8297C32.433 29.9015 31.6863 30.9785 30.9251 32.1992C29.8194 33.9656 29.4747 34.4251 29.2306 34.4251C29.0295 34.4251 28.1248 33.7358 26.8467 32.63C24.7788 30.8349 24.549 30.7057 23.6874 30.8349C23.5725 30.8493 22.6247 31.3519 21.6051 31.9551L19.7238 33.0608L10.1308 33.1326L0.523536 33.2044L0.236322 33.5635C0.0209112 33.8363 -0.0365316 34.0661 0.0209112 34.5256C0.150158 35.6745 -0.725845 35.5883 10.4468 35.5452L20.4418 35.5022L21.6625 34.7698C23.156 33.865 23.7448 33.5635 24.0033 33.5635C24.1182 33.5635 25.1665 34.4107 26.3441 35.4447C29.087 37.8429 28.9865 37.7855 29.7763 37.6563C30.4082 37.5701 30.4656 37.527 31.2267 36.3351C31.9017 35.2867 32.0453 35.1288 32.2176 35.3011C32.3612 35.4447 32.5479 37.5126 32.9213 42.9697C33.2085 47.0769 33.6968 54.0849 34.0127 58.5511C34.3286 63.0173 34.5871 67.268 34.5871 67.9861C34.5871 69.2498 34.6015 69.3216 34.9461 69.5514C35.219 69.7237 35.5062 69.7668 36.0519 69.7237C37.0428 69.6232 37.2008 69.3791 37.129 68.1728C37.0859 67.2393 37.4449 60.6478 38.6799 40.1694C39.0389 34.2097 39.5272 26.2395 39.757 22.4626C39.9724 18.6714 40.2022 15.5551 40.2452 15.4977C40.2883 15.4546 40.3601 15.4546 40.3889 15.4833C40.4176 15.512 41.1069 20.8399 41.9111 27.3165C42.7153 33.7932 43.4477 39.2503 43.5482 39.4513C43.6918 39.7673 43.8211 39.8104 44.5247 39.8534C45.5156 39.9109 45.3433 40.1119 47.5548 36.2202C48.7899 34.0661 49.2638 33.348 49.4648 33.348C49.6371 33.348 49.9531 33.6783 50.3408 34.2815C50.6855 34.7985 51.1594 35.3873 51.4179 35.6027L51.8774 36.0048H63.4665H75.0412L75.6013 35.6314C75.9029 35.416 76.4917 34.9708 76.8938 34.6261C77.2959 34.2815 77.7698 33.9943 77.9421 33.9943C78.3011 33.9943 78.4591 34.2097 80.5845 37.5701L82.1354 40.0258H82.9109C83.8587 40.0258 83.9449 39.9396 85.0937 37.6419C85.5533 36.7372 86.0128 36.0048 86.099 36.0048C86.3431 36.0048 86.3862 36.292 86.5729 38.5897C86.7739 41.1459 87.7217 53.2376 88.4254 62.0407C89.0429 69.8099 88.9998 69.6088 90.0051 69.6088C90.7806 69.6088 91.2258 69.3216 91.355 68.7472C91.4124 68.4743 91.6853 64.2092 91.9582 59.2691C92.4464 50.4804 92.9778 41.2177 93.9543 24.3295C94.2128 19.691 94.4713 15.8423 94.5287 15.7993C94.5718 15.7418 94.6436 15.7418 94.6723 15.7705C94.701 15.7993 95.3473 20.6388 96.1084 26.5267C97.6737 38.6184 97.7312 39.0205 97.9322 39.2503C98.1045 39.4657 99.2534 39.638 99.6411 39.5231C99.8135 39.4657 100.445 38.3743 101.508 36.292C102.7 33.9081 103.16 33.1326 103.361 33.1326C103.519 33.1326 103.949 33.5491 104.423 34.1666C104.854 34.741 105.371 35.3442 105.558 35.5022C105.888 35.7894 106.046 35.7894 128.966 35.7176C150.837 35.6458 152.058 35.6314 152.302 35.3873C152.661 35.0426 152.661 33.8076 152.302 33.4629C152.058 33.2188 150.995 33.2044 129.669 33.2619C117.377 33.2906 107.166 33.2619 106.994 33.2188C106.821 33.1614 106.103 32.3859 105.4 31.4812C104.682 30.5764 103.949 29.7579 103.777 29.643C103.562 29.5137 103.217 29.4563 102.829 29.4994C102.097 29.5855 101.996 29.7291 100.733 32.2423C99.9714 33.7789 99.7704 34.023 99.5693 33.7071C99.5262 33.6353 98.6502 27.1299 97.6306 19.2458C95.1462 0.0742874 95.2467 0.849762 95.0457 0.605629C94.8016 0.318413 93.4229 0.318413 93.1214 0.605629C92.8485 0.878479 92.8054 1.3093 92.4608 7.49877C92.3028 10.3422 91.9725 16.0003 91.7427 20.0644C91.513 24.1285 91.0534 32.2136 90.7375 38.0153C90.4072 43.817 90.0913 48.6996 90.0338 48.8576C89.9333 49.1017 89.9046 49.073 89.8328 48.6422C89.7753 48.3693 89.445 44.2622 89.0716 39.5231C88.7126 34.7841 88.3393 30.7488 88.2387 30.5477C88.1238 30.2892 87.9084 30.16 87.4776 30.0594C86.3288 29.8153 86.3288 29.8297 84.6342 33.1326C83.3274 35.7032 83.0545 36.1627 82.796 36.1197C82.595 36.0909 82.0493 35.3442 81.0153 33.7071C80.1824 32.4002 79.4212 31.237 79.3064 31.1078C79.1915 30.9785 78.8181 30.8206 78.5022 30.7775C77.8272 30.6626 77.7841 30.6913 75.8742 32.271C75.2423 32.8023 74.5817 33.305 74.4094 33.4055C73.9355 33.6496 53.1124 33.6353 52.7965 33.3768C52.6673 33.2906 52.0498 32.4146 51.4035 31.4524C50.7716 30.4903 50.1254 29.6286 49.9818 29.5568C49.709 29.4132 48.675 29.6286 48.4165 29.8728C48.359 29.9302 47.7272 30.9929 47.0091 32.2279C46.3055 33.4629 45.6449 34.4969 45.5443 34.5256C45.4582 34.5543 45.3433 34.4682 45.3002 34.3246C45.2571 34.181 44.2806 26.5698 43.1318 17.4077C41.9829 8.25989 41.0064 0.648712 40.9633 0.490746C40.834 0.0599213 40.2165 -0.0980453 39.3549 0.0599213Z" fill="#1FA0F7"/>
</svg>
