<svg width="162" height="119" viewBox="0 0 162 119" fill="none" xmlns="http://www.w3.org/2000/svg">
<path fill-rule="evenodd" clip-rule="evenodd" d="M38.8921 0.000366211C30.7717 0.000366211 24.7259 3.39125 20.9736 8.00995C17.2214 12.6287 15.6475 18.3071 15.6475 23.25C15.6475 24.1476 15.7072 25.0355 15.8308 25.9029C6.72175 28.3413 0 36.6767 0 46.5201C0 51.6321 1.81566 56.353 4.82718 60.034C2.70091 63.3562 1.46138 67.3159 1.46138 71.5367C1.46138 79.7109 6.07784 86.8405 12.8622 90.4175C12.6669 91.66 12.5668 92.9327 12.5668 94.2262C12.5668 107.659 23.5142 118.611 36.947 118.611C50.3797 118.611 61.3321 107.659 61.3321 94.2262V23.25C61.3321 18.3887 60.0067 12.7349 56.4643 8.08633C52.9218 3.43776 47.0124 0.000366211 38.892 0.000366211H38.8921Z" fill="#EE8EB4"/>
<path fill-rule="evenodd" clip-rule="evenodd" d="M112.644 60.0289C115.655 56.348 117.471 51.6268 117.471 46.515C117.471 36.6712 110.75 28.3358 101.64 25.8978C101.763 25.0321 101.823 24.1458 101.823 23.25C101.823 18.3071 100.244 12.6287 96.4921 8.00995C92.7399 3.39125 86.6991 0.000366211 78.5787 0.000366211C70.4584 0.000366211 64.549 3.43776 61.0065 8.08633C57.4641 12.7349 56.1387 18.3887 56.1387 23.25V94.2262C56.1387 107.659 67.086 118.611 80.5188 118.611C93.9515 118.611 104.904 107.659 104.904 94.2262C104.904 92.929 104.8 91.6532 104.604 90.4073L112.644 60.0289Z" fill="#EE8EB4"/>
<path fill-rule="evenodd" clip-rule="evenodd" d="M38.8916 0.000366211C30.7712 0.000366211 24.7254 3.39125 20.9732 8.00995C17.2209 12.6287 15.647 18.3071 15.647 23.25C15.647 24.5033 15.7753 25.7336 16.0136 26.9213L15.9928 26.9266C15.9928 26.9266 16.0827 27.4361 16.339 28.2912C16.9108 30.1994 18.3101 33.8389 21.4157 37.4363C22.3567 38.5251 24.0025 38.6413 25.092 37.7011C26.181 36.76 26.3021 35.1194 25.3619 34.0298C22.3656 30.7721 21.2295 27.1448 20.8607 23.2502C20.8607 19.4637 22.1732 14.8236 25.0361 11.2995C27.8991 7.77539 32.1665 5.21974 38.8912 5.21974C45.6159 5.21974 49.6457 7.74933 52.3084 11.2435C54.9712 14.7377 56.1375 19.382 56.1375 23.2502C56.1323 24.69 57.2946 25.8618 58.7344 25.8675C60.1742 25.8622 61.3369 24.69 61.3312 23.2502C61.3312 18.3889 60.0059 12.7351 56.4634 8.08649C52.9209 3.43792 47.0116 0.000525333 38.8912 0.000525333L38.8916 0.000366211ZM22.5517 78.5432C22.0599 78.5249 21.5727 78.6438 21.1463 78.8894C17.9121 80.7459 15.9193 83.0356 14.7763 84.8928C12.9704 87.7732 12.7442 91.2732 12.5664 94.2262C12.5664 107.659 23.5137 118.611 36.9465 118.611C48.1118 118.611 57.5628 111.043 60.4355 100.774C61.569 96.5443 61.0897 92.1371 58.633 88.4215C56.1497 85.1768 51.1229 80.3349 43.1077 80.0809C41.6598 80.0324 40.4501 81.1735 40.4141 82.6218C40.3768 84.0541 41.5026 85.2479 42.9346 85.295C47.9872 85.4554 51.4029 88.0062 53.4392 90.2342C56.314 93.0319 56.1164 96.7661 55.0126 100.724C52.3526 108.121 45.2744 113.392 36.9465 113.392C26.3354 113.392 17.7805 104.837 17.7805 94.2262C17.6356 91.456 18.3637 89.4817 19.2266 87.6271C19.9752 86.4107 21.3084 84.8116 23.7483 83.411C24.9969 82.694 25.4278 81.1004 24.7106 79.8518C24.2642 79.073 23.4486 78.5786 22.5517 78.5432Z" fill="#DD527C"/>
<path fill-rule="evenodd" clip-rule="evenodd" d="M7.54388 56.6793C6.85403 56.6901 6.19658 56.974 5.7156 57.4686C5.47607 57.7146 5.2875 58.0056 5.16073 58.3247C5.03396 58.6438 4.97148 58.9848 4.97689 59.3282C4.98229 59.6715 5.05544 60.0103 5.19219 60.3253C5.32894 60.6403 5.5266 60.9253 5.77375 61.1636C5.77375 61.1636 10.8161 66.1056 18.7064 66.9179C19.3927 66.9909 20.08 66.7888 20.6175 66.3559C21.155 65.923 21.4989 65.2946 21.5739 64.6085C21.6099 64.2672 21.5783 63.9221 21.4807 63.593C21.3831 63.264 21.2214 62.9573 21.0051 62.6909C20.7887 62.4245 20.5219 62.2036 20.2199 62.0405C19.9179 61.8774 19.5867 61.7758 19.2452 61.741C13.2644 61.1252 9.39178 57.4301 9.39178 57.4301C8.89978 56.9449 8.23527 56.6748 7.54426 56.6793H7.54388Z" fill="#DD527C"/>
<path fill-rule="evenodd" clip-rule="evenodd" d="M23.4399 48.327C23.1088 48.2382 22.7635 48.2154 22.4237 48.2603C22.0838 48.3051 21.7562 48.4167 21.4594 48.5883C21.1627 48.7599 20.9027 48.9882 20.6944 49.2604C20.486 49.5326 20.3334 49.8433 20.2452 50.1745C20.1564 50.5056 20.1338 50.8508 20.1786 51.1906C20.2235 51.5305 20.3349 51.8582 20.5065 52.155C20.6781 52.4517 20.9065 52.7116 21.1787 52.92C21.4509 53.1283 21.7615 53.2811 22.0928 53.3692C22.0928 53.3692 25.5633 54.2974 28.867 57.3144C32.1707 60.3312 35.2578 65.1388 34.2364 73.9037C34.1574 74.5871 34.3518 75.2742 34.7772 75.8149C35.2026 76.3557 35.8245 76.7063 36.5073 76.7904C36.8487 76.8321 37.195 76.8059 37.5262 76.7131C37.8573 76.6204 38.1669 76.4632 38.437 76.2504C38.7071 76.0375 38.9325 75.7731 39.1 75.4727C39.2676 75.1724 39.374 74.8419 39.4133 74.5003C40.6096 64.2343 36.6647 57.3699 32.3889 53.4654C28.113 49.561 23.4399 48.327 23.4399 48.327Z" fill="#DD527C"/>
<path fill-rule="evenodd" clip-rule="evenodd" d="M34.0447 61.0673C34.0447 61.0673 36.9958 60.7815 40.0877 59.0273C43.1795 57.2733 46.6231 53.7595 47.3238 48.0384C47.4996 46.6088 46.4827 45.3074 45.0529 45.1324C43.6232 44.956 42.3219 45.974 42.1469 47.4033C41.6517 51.4461 39.5979 53.3003 37.5088 54.4855C35.4198 55.6708 33.5059 55.8904 33.5059 55.8904L34.0447 61.0673Z" fill="#DD527C"/>
<path fill-rule="evenodd" clip-rule="evenodd" d="M40.2983 28.6006C39.9584 28.5588 39.6135 28.5843 39.2835 28.6758C38.9535 28.7673 38.6446 28.9232 38.3748 29.1341C38.1049 29.345 37.8792 29.6069 37.7107 29.9051C37.5421 30.2032 37.4339 30.5316 37.3923 30.8716C36.8972 34.9145 34.8619 36.7687 32.7735 37.9537C30.6851 39.1388 28.7513 39.3394 28.7513 39.3394C28.4098 39.3741 28.0786 39.4758 27.7766 39.6389C27.4746 39.8019 27.2078 40.0232 26.9915 40.2896C26.7751 40.556 26.6135 40.8624 26.5159 41.1914C26.4183 41.5204 26.3866 41.8656 26.4226 42.2069C26.4574 42.5483 26.5592 42.8795 26.7222 43.1815C26.8853 43.4835 27.1064 43.7502 27.3728 43.9666C27.6392 44.1829 27.9457 44.3447 28.2747 44.4423C28.6038 44.5399 28.9488 44.5716 29.2901 44.5355C29.2901 44.5355 32.2419 44.2498 35.3331 42.4956C38.4243 40.7413 41.8685 37.2083 42.5692 31.4874C42.6482 30.8039 42.4538 30.1169 42.0284 29.5761C41.603 29.0354 40.9811 28.6848 40.2983 28.6006Z" fill="#DD527C"/>
<path fill-rule="evenodd" clip-rule="evenodd" d="M51.1909 33.4313C50.856 33.3561 50.5096 33.3477 50.1714 33.4067C49.8332 33.4656 49.51 33.5909 49.2203 33.7751C48.9307 33.9592 48.6803 34.1987 48.4834 34.4799C48.2865 34.7611 48.1472 35.0784 48.0732 35.4136C47.998 35.7485 47.9895 36.0951 48.0485 36.4333C48.1075 36.7714 48.2326 37.0944 48.4168 37.3841C48.601 37.6738 48.8405 37.9243 49.1217 38.1211C49.4029 38.318 49.7203 38.4574 50.0555 38.5313C55.2437 39.6837 56.1754 43.3618 56.1754 43.3618C56.3813 44.019 56.839 44.5681 57.4484 44.8891C58.0577 45.21 58.7694 45.2766 59.4278 45.0746C59.7554 44.9727 60.0597 44.8072 60.3232 44.5875C60.5867 44.3677 60.8042 44.0981 60.9634 43.7942C61.1225 43.4902 61.22 43.158 61.2504 42.8163C61.2809 42.4746 61.2436 42.1302 61.1406 41.8029C61.1406 41.8029 58.8143 35.1247 51.1909 33.4313Z" fill="#DD527C"/>
<path fill-rule="evenodd" clip-rule="evenodd" d="M28.5223 91.5897C28.2428 91.788 28.0052 92.0393 27.823 92.3294C27.6408 92.6196 27.5176 92.9431 27.4604 93.2809C27.4032 93.6187 27.4132 93.9642 27.4897 94.2981C27.5662 94.6321 27.7078 94.9478 27.9064 95.227C31.1764 99.8602 35.4928 101.393 38.7799 101.462C42.0669 101.531 44.5534 100.308 44.5534 100.308C44.8626 100.157 45.1389 99.9465 45.3664 99.6886C45.5939 99.4306 45.7681 99.1304 45.879 98.8048C45.9899 98.4792 46.0353 98.1349 46.0126 97.7917C45.9899 97.4485 45.8995 97.1132 45.7466 96.8051C45.5942 96.4976 45.3826 96.2233 45.1239 95.9977C44.8652 95.7722 44.5645 95.5998 44.2391 95.4907C43.9136 95.3817 43.5699 95.3379 43.2275 95.362C42.8851 95.3861 42.5509 95.4776 42.244 95.6312C42.244 95.6312 40.8762 96.2884 38.8953 96.247C36.9145 96.2076 34.5663 95.6352 32.1596 92.2248C31.9628 91.9438 31.7125 91.7043 31.4231 91.5202C31.1336 91.3362 30.8107 91.2112 30.4728 91.1522C30.1349 91.0931 29.7887 91.1012 29.454 91.1762C29.1193 91.2513 28.8026 91.3915 28.5223 91.5891V91.5897Z" fill="#DD527C"/>
<path fill-rule="evenodd" clip-rule="evenodd" d="M81.8494 91.1471C81.5099 91.2059 81.1854 91.3314 80.8947 91.5164C80.604 91.7014 80.3529 91.9422 80.1558 92.2248C77.7504 95.6345 75.4013 96.2053 73.42 96.2471C71.4388 96.2865 70.0714 95.6312 70.0714 95.6312C69.4535 95.3271 68.7403 95.2799 68.0877 95.4998C67.435 95.7198 66.8959 96.1891 66.5881 96.8052C66.4345 97.1121 66.343 97.4464 66.3189 97.7888C66.2948 98.1311 66.3386 98.4749 66.4477 98.8003C66.5568 99.1257 66.729 99.4263 66.9545 99.685C67.1801 99.9437 67.4545 100.155 67.762 100.308C67.762 100.308 70.2482 101.532 73.5355 101.462C76.8228 101.393 81.1594 99.8606 84.4282 95.2271C84.6258 94.9467 84.7662 94.6302 84.8412 94.2955C84.9163 93.9608 84.9246 93.6146 84.8656 93.2767C84.8066 92.9388 84.6815 92.6159 84.4974 92.3265C84.3134 92.037 84.074 91.7866 83.7931 91.5898C83.2294 91.1906 82.5304 91.0316 81.8494 91.1474L81.8494 91.1471Z" fill="#DD527C"/>
<path fill-rule="evenodd" clip-rule="evenodd" d="M112.644 60.0292C115.655 56.3482 117.471 51.6271 117.471 46.5153C117.471 36.6715 110.75 28.3361 101.64 25.8981C101.763 25.0323 101.824 24.1461 101.824 23.2503C101.824 18.6755 100.448 13.481 97.2714 9.06934H87.1029C80.398 9.06934 73.9659 11.7373 69.2251 16.4781C64.4835 21.2196 61.8164 27.652 61.8164 34.3558V61.8776C61.8164 68.583 64.4844 75.0145 69.2251 79.7553C72.6087 83.1389 76.7215 84.6189 80.6921 85.5448L91.4921 101.656C92.9581 103.84 95.557 105.215 98.188 105.215C99.9277 105.215 101.642 104.609 103.03 103.57C104.233 100.689 104.904 97.5354 104.904 94.2265C104.904 92.9292 104.8 91.6535 104.604 90.4076L112.644 60.0292Z" fill="#DD527C"/>
<path fill-rule="evenodd" clip-rule="evenodd" d="M87.1033 14.5135C81.8433 14.5135 76.7935 16.6057 73.0737 20.3255C69.3535 24.0457 67.2617 29.096 67.2617 34.3551V61.8755C67.2617 67.1368 69.3535 72.1849 73.0737 75.9051C76.0266 78.8581 80.0384 80.2163 84.1204 80.8896L96.0138 98.6143C96.2522 98.9696 96.5745 99.2609 96.9521 99.4623C97.3297 99.6636 97.751 99.7687 98.1789 99.7687C98.6068 99.7687 99.0281 99.6636 99.4057 99.4623C99.7832 99.2609 100.106 98.9696 100.344 98.6143L111.641 81.7171H141.798C147.06 81.7171 152.108 79.622 155.827 75.9051C159.544 72.1855 161.639 67.1377 161.639 61.8755V34.3551C161.639 29.095 159.544 24.0451 155.827 20.3255C152.108 16.6057 147.06 14.5135 141.798 14.5135H87.1033Z" fill="#F5F6E8"/>
<path fill-rule="evenodd" clip-rule="evenodd" d="M87.1033 14.5135C81.8432 14.5135 76.7948 16.6087 73.0751 20.3285C71.2713 22.1323 69.8545 24.2493 68.8691 26.5507C71.3141 25.5037 73.9654 24.9416 76.6751 24.9416H131.367C136.63 24.9416 141.681 27.0368 145.401 30.7566C149.117 34.4762 151.211 39.5247 151.211 44.7847V72.3066C151.211 75.0151 150.652 77.6644 149.607 80.1075C151.907 79.1217 154.026 77.7084 155.829 75.9066C159.546 72.187 161.639 67.1407 161.639 61.8785V34.3566C161.639 29.0965 159.546 24.0482 155.829 20.3285C152.109 16.6087 147.058 14.5135 141.796 14.5135H87.1033Z" fill="#D0D9C3"/>
<path fill-rule="evenodd" clip-rule="evenodd" d="M18.6292 25.3486C8.13211 26.6851 0 35.6907 0 46.5181C0 52.3336 2.353 57.6426 6.13917 61.4907C7.15274 62.5197 8.80972 62.5285 9.83421 61.5103C10.8504 60.4989 10.8591 58.857 9.85391 57.8348C6.98584 54.9197 5.21586 50.9374 5.21586 46.5187C5.21586 38.2928 11.3534 31.5359 19.284 30.5261L18.6292 25.3486Z" fill="#DD527C"/>
<path fill-rule="evenodd" clip-rule="evenodd" d="M16.4933 86.3748C10.7354 83.9203 6.67829 78.2155 6.67829 71.5369C6.67829 67.7189 8.00574 64.2354 10.2194 61.4717L6.13943 58.2001C3.21633 61.8495 1.46289 66.5094 1.46289 71.5369C1.46289 80.3284 6.79957 87.9123 14.434 91.1668L16.4933 86.3748Z" fill="#DD527C"/>
<path fill-rule="evenodd" clip-rule="evenodd" d="M20.9738 8.00984C17.2216 12.6286 15.6477 18.3072 15.6477 23.2501C15.6477 24.2286 15.8093 25.1628 15.9888 26.0915C15.9346 26.2304 15.908 26.3141 15.9277 26.5299C6.95117 29.0493 0 36.7728 0 46.5204C0 51.4575 2.11046 55.7646 4.98495 59.3571C5.2172 59.7562 5.15465 59.9089 5.09238 60.1335C2.97326 63.4108 1.46134 67.3636 1.46134 71.5368C1.46134 79.6559 6.3547 86.3121 13.0658 89.9137C12.8114 91.326 12.5669 92.7413 12.5669 94.2264C12.5669 107.66 23.5142 118.612 36.9469 118.612C45.3834 118.612 52.8425 114.286 57.2229 107.745C61.6022 114.3 69.0726 118.612 77.5194 118.612C85.3338 118.612 92.3211 114.904 96.7821 109.161C97.663 108.023 97.4555 106.387 96.3186 105.505C95.1809 104.624 93.5446 104.831 92.6627 105.968C89.1512 110.489 83.6922 113.392 77.5193 113.392C69.7172 113.392 63.0299 108.739 60.0286 102.078C60.871 99.6122 61.3321 96.9713 61.3321 94.2261V23.2501C61.3321 20.6205 60.9405 17.7592 60.0235 14.9501C62.2794 9.59641 66.652 5.21931 75.5742 5.21931C80.843 5.21931 84.5773 6.80683 87.3518 9.16575C88.447 10.1008 90.0933 9.97067 91.0282 8.87497C91.9636 7.77976 91.8336 6.13376 90.7379 5.19887C87.0435 2.05788 81.9362 0 75.5741 0C66.8173 0 60.7852 4.0383 57.2586 9.20604C57.0056 8.82668 56.7443 8.45336 56.4643 8.08592C52.9218 3.43736 47.0124 0 38.8923 0C30.7721 0 24.7261 3.39113 20.9738 8.00984ZM52.3095 11.2433C54.9723 14.7375 56.1386 19.3819 56.1386 23.2501V35.5775C54.816 34.6611 53.184 33.877 51.1892 33.434C49.7813 33.1177 48.3847 34.0055 48.073 35.4148C47.7571 36.8226 48.6449 38.2193 50.0538 38.531C54.7151 39.5664 55.9377 42.6322 56.1386 43.246V85.6464C53.3 82.9502 49.018 80.2682 43.1084 80.081C41.6605 80.0317 40.4508 81.1737 40.4148 82.6219C40.3774 84.0542 41.5033 85.2481 42.9353 85.2952C52.0078 85.5829 55.8076 93.5745 55.8076 93.5745C56.2001 93.9666 56.1041 94.8221 56.1041 95.3889C55.5045 105.455 47.1678 113.392 36.9472 113.392C26.3361 113.392 17.7812 104.837 17.7812 94.2264C17.7812 92.248 18.4407 90.677 19.0541 89.3586C19.8027 88.1422 21.1358 86.543 23.5757 85.1424C24.8243 84.4251 25.2552 82.8316 24.5381 81.583C23.8209 80.3313 22.2235 79.9002 20.9737 80.6205C18.2335 82.1935 16.4016 84.0795 15.2097 85.7481C10.1423 83.0375 6.67566 77.7065 6.67566 71.5365C6.67566 68.5904 7.47191 65.8466 8.8499 63.4758C11.105 64.8811 14.5039 66.4852 18.7078 66.918C20.1373 67.0697 21.4198 66.0353 21.5746 64.6065C21.7258 63.1698 20.6798 61.884 19.2425 61.7396C14.4161 61.243 10.9656 58.7409 9.81226 57.7934C6.96472 54.8815 5.21428 50.9204 5.21428 46.5198C5.21428 38.9916 10.3566 32.6964 17.3076 30.9081C18.1286 32.7855 19.4183 35.1208 21.4168 37.4358C22.359 38.5236 24.0047 38.6423 25.0931 37.701C26.1793 36.761 26.3 35.1188 25.363 34.0297C22.3706 30.7797 21.2177 27.1388 20.8618 23.2501C20.8618 19.4636 22.1742 14.8233 25.0372 11.2992C27.9001 7.77515 32.1675 5.21961 38.8923 5.21961C45.617 5.21952 49.6468 7.74918 52.3095 11.2433ZM87.1026 14.5123C81.8425 14.5123 76.7941 16.6075 73.0743 20.3273C69.354 24.0474 67.2594 29.0963 67.2594 34.3554V61.8773C67.2594 67.1385 69.3541 72.1855 73.0743 75.9057C76.0272 78.8587 80.0367 80.2172 84.1187 80.8905L96.0134 98.6155C97.0465 100.153 99.3083 100.153 100.341 98.6155L111.641 81.7156H141.795C147.057 81.7156 152.108 79.6225 155.828 75.9057C159.545 72.186 161.638 67.1394 161.638 61.8773V34.3554C161.638 29.0953 159.545 24.0469 155.828 20.3273C152.108 16.6075 147.057 14.5123 141.795 14.5123H87.1026ZM87.1026 19.7265H141.795C145.676 19.7265 149.408 21.2597 152.152 24.0037C154.894 26.7478 156.424 30.4773 156.424 34.3554V61.8773C156.424 65.7582 154.894 69.4648 152.152 72.2089C149.408 74.9509 145.676 76.5014 141.795 76.5014H110.255C109.383 76.4988 108.567 76.9318 108.081 77.657L98.1673 92.4748L88.238 77.657C87.7875 76.9811 87.0476 76.5539 86.2369 76.5014C82.688 76.2906 79.2944 74.7526 76.7507 72.2089C74.0071 69.4653 72.4735 65.7592 72.4735 61.8773V34.3554C72.4735 30.4764 74.0072 26.7472 76.7507 24.0037C79.4947 21.2597 83.2245 19.7265 87.1026 19.7265ZM39.9565 28.5813C38.647 28.5911 37.5487 29.5728 37.3902 30.8726C36.895 34.9156 34.8602 36.7706 32.7718 37.9557C30.6834 39.1408 28.7492 39.3405 28.7492 39.3405C27.3139 39.4873 26.271 40.7725 26.4222 42.2074C26.5692 43.6426 27.8541 44.6855 29.289 44.5342C29.289 44.5342 32.2418 44.2515 35.3331 42.4975C38.4243 40.7433 41.868 37.2097 42.5687 31.4888C42.7331 30.0659 41.7192 28.7768 40.2977 28.6017C40.1846 28.582 40.0705 28.5813 39.9565 28.5813ZM44.7124 45.1146C43.4046 45.1244 42.3069 46.1029 42.146 47.4008C41.6509 51.4436 39.5964 53.2987 37.5073 54.4839C36.3523 55.1391 35.2521 55.4997 34.498 55.6906C33.8199 54.8639 33.1098 54.1227 32.3899 53.4654C28.114 49.561 23.4383 48.3276 23.4383 48.3276C22.0462 47.9551 20.6162 48.7838 20.2457 50.176C19.8737 51.5681 20.7015 52.9981 22.0941 53.3686C22.0941 53.3686 25.5626 54.298 28.8663 57.315C32.1701 60.3318 35.2597 65.1394 34.2383 73.9042C34.0737 75.3271 35.0878 76.6164 36.5093 76.7916C37.9448 76.965 39.2471 75.9364 39.4117 74.5002C40.0887 68.691 39.1189 63.9688 37.3749 60.258C38.2125 59.9624 39.1453 59.5614 40.0889 59.0257C43.1807 57.2717 46.6238 53.7585 47.3245 48.0374C47.5013 46.6071 46.484 45.3047 45.0535 45.1299C44.9404 45.1201 44.8262 45.1104 44.7124 45.1104V45.1146ZM82.1889 91.1096C82.0745 91.1148 81.9604 91.1293 81.8477 91.149C81.1628 91.2692 80.5542 91.6574 80.1572 92.2285C77.7518 95.6382 75.4019 96.2093 73.4206 96.251C71.4394 96.2905 70.0702 95.6352 70.0702 95.6352C68.7847 95.0016 67.2291 95.5249 66.5873 96.8064C65.9404 98.097 66.4655 99.6676 67.7585 100.31C67.7585 100.31 70.2453 101.535 73.5326 101.466C76.82 101.397 81.1606 99.8666 84.4293 95.2332C85.2626 94.0528 84.9772 92.4198 83.7928 91.5922C83.3254 91.2612 82.7616 91.0928 82.1889 91.1135V91.1096ZM30.1292 91.1147C29.5553 91.095 28.9896 91.2575 28.5201 91.5886C27.3426 92.4222 27.0665 94.0546 27.9039 95.2295C31.1739 99.8627 35.4932 101.393 38.7803 101.462C42.0673 101.531 44.5494 100.306 44.5494 100.306C45.852 99.6734 46.3894 98.1002 45.746 96.8028C45.104 95.5099 43.5334 94.9847 42.2428 95.6316C42.2428 95.6316 40.8732 96.2888 38.8923 96.2474C36.9115 96.208 34.5624 95.6357 32.1557 92.2249C31.69 91.5598 30.9407 91.1488 30.1292 91.1147Z" fill="black"/>
<path d="M112.182 63.2749L100.825 30.2307L90.7552 53.1709H87.5105C86.6713 53.1709 86 52.5523 86 51.779C86 51.0057 86.6713 50.3871 87.5105 50.3871H88.7413L98.9231 27.1892C99.2028 26.4675 99.986 25.952 100.937 26.0035C101.888 26.0035 102.671 26.5191 102.951 27.3439L113.58 58.326L119.399 43.2731C119.734 42.4998 120.462 42.0359 121.301 41.9843C122.14 41.9328 122.867 42.3967 123.315 43.0669L127.958 50.5418H140.49C141.329 50.5418 142 51.1604 142 51.9337C142 52.7069 141.329 53.3255 140.49 53.3255H126.224L121.58 45.9022L114.811 63.4295C114.364 64.4605 112.573 64.4605 112.182 63.2749Z" fill="#5218FC"/>
</svg>
