<svg width="102" height="102" viewBox="0 0 102 102" fill="none" xmlns="http://www.w3.org/2000/svg">
<path d="M25.3554 21.8795C25.2664 21.8792 25.1776 21.8868 25.0899 21.9022C16.7192 23.4024 11.205 28.368 8.91904 34.5251C6.72607 40.4318 7.59888 47.3112 11.0792 53.3147C5.44296 61.9268 9.15872 74.5419 19.9852 77.7883C17.9251 87.2843 26.1876 97.475 38.3163 97.6157C38.3204 97.6157 38.3246 97.6157 38.3287 97.6157C42.8836 97.6175 46.397 96.5659 48.8278 94.6712C50.2668 93.5495 50.4058 91.7806 51 90.2062C51.5941 91.7806 51.7331 93.5495 53.1722 94.6712C55.6029 96.5659 59.1163 97.6175 63.6712 97.6157C63.6753 97.6157 63.6795 97.6157 63.6837 97.6157C75.8083 97.4746 84.068 87.2853 82.0147 77.7883C92.8396 74.5378 96.551 61.922 90.9207 53.3028C94.3912 47.2988 95.2739 40.4258 93.0809 34.5251C90.7936 28.371 85.2645 23.4018 76.8979 21.9022C76.8103 21.8868 76.7214 21.8792 76.6324 21.8795H25.3554Z" fill="#EE8EB4"/>
<path d="M64.4584 44.656C64.6369 44.1057 65.2629 43.2072 66.5291 41.8783C67.749 40.5978 69.466 38.9213 71.01 36.6403C74.0731 32.6116 75.0764 26.4073 74.6616 21.8794L27.4422 21.8793C27.1667 24.4972 27.3833 28.6872 28.266 31.3995C30.3299 37.9653 35.2563 41.3104 36.933 43.5286C36.9806 43.5853 37.03 43.6414 37.0805 43.6958C37.8383 44.6301 38.1553 47.0515 37.9433 50.5648C37.9431 50.5874 37.9431 50.6158 37.9433 50.6402C37.939 50.7422 37.9425 50.8419 37.9433 50.9433C37.9432 50.9603 37.9432 50.983 37.9433 51C37.9426 51.0454 37.9426 51.0906 37.9433 51.1365C37.9437 51.1478 37.9428 51.1592 37.9433 51.1648C37.9489 51.3173 37.9784 51.467 37.996 51.6183C37.9988 51.6693 38.0033 51.7169 38.0073 51.7656C38.0175 51.8325 38.0147 51.8999 38.0266 51.9662C38.0368 52.0059 38.0481 52.05 38.06 52.0914V52.1027C38.0685 52.1593 38.0793 52.2143 38.0906 52.2699C38.098 52.3039 38.1127 52.3322 38.1212 52.3645C38.1575 52.4999 38.2003 52.6337 38.2491 52.7652C38.2837 52.8694 38.3035 52.9772 38.3438 53.0797C38.3466 53.0851 38.3523 53.0967 38.3551 53.1024C38.8894 54.4928 39.4186 55.8885 39.9527 57.2799C39.6298 57.9013 39.21 58.269 38.9953 59.0361C38.1337 62.0452 38.7999 64.8627 39.7634 66.8819C40.6501 68.7404 41.7136 70.0352 42.3407 70.8898C42.301 71.4129 41.9413 73.4232 42.8667 75.9497C43.9055 78.7847 47.3502 80.4851 50.2311 79.5789V79.5677C55.6492 77.8556 59.979 73.8722 62.274 68.819C62.2814 68.802 62.2888 68.7792 62.2961 68.7622C62.4152 68.4919 62.5135 68.2182 62.5911 67.9328V67.9214C63.5229 64.5406 63.0375 61.082 61.823 57.8323C62.4337 56.2572 63.0507 54.6805 63.6627 53.0981C63.6627 53.0924 63.6627 53.0868 63.6627 53.0811C63.6933 52.9978 63.7208 52.9128 63.7462 52.8278C63.7615 52.7881 63.7762 52.7445 63.7904 52.7026L63.7989 52.6913C63.7989 52.6857 63.7989 52.6743 63.7989 52.6687C63.8032 52.665 63.8063 52.6629 63.8102 52.6573C63.8145 52.6459 63.8176 52.6346 63.8216 52.6289C63.8448 52.5552 63.8663 52.481 63.8856 52.4062C63.8898 52.3892 63.8929 52.3721 63.8969 52.3551C63.8969 52.3438 63.8969 52.3326 63.8969 52.3212C63.9012 52.3175 63.9042 52.3155 63.9082 52.3098C63.9125 52.2928 63.9125 52.2758 63.9167 52.2588C63.9167 52.2531 63.9167 52.2418 63.9167 52.2362C63.9354 52.1455 63.9547 52.0548 63.9694 51.9636C63.9768 51.9409 63.9842 51.9184 63.9915 51.8912C64.0029 51.8084 64.0136 51.7211 64.0221 51.6378C64.0264 51.6265 64.0295 51.6151 64.0335 51.6037C64.0363 51.5754 64.042 51.5472 64.0448 51.5206C64.0391 51.4169 64.0601 51.308 64.0669 51.2145C64.067 51.2031 64.067 51.1862 64.0669 51.1749C64.0712 51.0825 64.0675 50.9923 64.0669 50.8994V50.8484C64.0679 50.7917 64.0679 50.7368 64.0669 50.6813C64.0861 51.1556 64.0884 51.1426 64.0669 50.636C63.9681 48.3358 64.3613 44.9242 64.2867 45.103L64.4584 44.656Z" fill="#DD527C"/>
<path d="M50.6509 4.38377C44.2335 4.55207 39.9645 7.33216 36.0364 11.2503C36.0107 11.2741 35.9859 11.2989 35.9619 11.3245C31.9163 15.96 29.5446 22.6431 31.5912 28.8942C33.1874 34.0132 37.4672 36.8957 39.9973 40.2431C40.0096 40.2565 40.022 40.2698 40.0347 40.2828C42.2371 42.998 42.2437 46.9102 42.009 50.7998C41.9966 51.0054 42.0268 51.2114 42.0976 51.4049C42.1683 51.5984 42.2782 51.7753 42.4204 51.9244C42.5625 52.0735 42.7338 52.1917 42.9237 52.2716C43.1135 52.3516 43.3179 52.3915 43.5239 52.3891C48.1628 52.3041 53.453 52.4061 58.4985 52.3891C58.7002 52.388 58.8996 52.3462 59.0848 52.2663C59.27 52.1863 59.4371 52.0698 59.5763 51.9237C59.7154 51.7776 59.8236 51.605 59.8944 51.4161C59.9652 51.2273 59.9972 51.0261 59.9885 50.8245C59.8792 48.2959 59.8107 44.7968 60.5845 42.94C60.6026 42.9034 60.6192 42.8663 60.6343 42.8284C61.7861 39.2784 65.6241 37.0374 68.2458 33.044C72.405 27.6178 71.8235 20.0652 68.7549 14.6547C68.7508 14.6471 68.7467 14.6396 68.7424 14.6321C67.0555 11.7565 64.2059 9.2218 60.9571 7.35581C57.7084 5.48994 54.0575 4.29873 50.6512 4.38827L50.6509 4.38377Z" fill="#FED883"/>
<path d="M41.5637 19.4458C41.2086 19.4661 40.8723 19.6119 40.6148 19.8572C40.3574 20.1025 40.1955 20.4313 40.1581 20.785C39.8478 23.7118 41.0361 26.6394 43.2681 28.5324L43.1907 28.4661C44.3073 29.5559 45.1557 30.6318 45.4706 31.864C45.4937 31.9438 45.5233 32.0214 45.5592 32.0963C46.4942 34.2167 46.4209 36.7318 46.4225 39.4785C46.4238 39.8744 46.5817 40.2536 46.8616 40.5335C47.1415 40.8134 47.5208 40.9712 47.9166 40.9726C48.1136 40.9734 48.3087 40.9354 48.491 40.8607C48.6732 40.786 48.839 40.6763 48.9788 40.5375C49.1186 40.3987 49.2296 40.2338 49.3056 40.0521C49.3817 39.8704 49.4211 39.6755 49.4218 39.4785C49.4204 36.8611 49.5387 33.8945 48.304 31.0005C47.7556 29.0181 46.5186 27.5254 45.2825 26.319C45.2576 26.2922 45.2318 26.2662 45.205 26.2413C43.7496 25.0069 42.9344 23.0012 43.1353 21.1059C43.1773 20.7112 43.0611 20.3159 42.8122 20.0068C42.5632 19.6977 42.2018 19.4998 41.8072 19.4567C41.7265 19.4463 41.6451 19.4425 41.5637 19.4454L41.5637 19.4458Z" fill="#3A4D5C"/>
<path d="M47.8183 18.8814C47.5902 18.8978 47.3689 18.9662 47.1713 19.0813C46.9737 19.1964 46.8051 19.3552 46.6783 19.5455C46.5686 19.709 46.4921 19.8925 46.4532 20.0855C46.4144 20.2786 46.414 20.4774 46.4521 20.6707C46.4901 20.8639 46.5658 21.0477 46.6749 21.2117C46.784 21.3756 46.9243 21.5165 47.0878 21.6262C48.0858 22.2915 49.0894 22.9532 50.0872 23.6184C50.3423 23.7889 50.6435 23.8771 50.9503 23.8711C51.2571 23.865 51.5546 23.7649 51.8027 23.5844C52.7055 22.9192 53.6114 22.2465 54.5143 21.5812C54.8319 21.3442 55.0428 20.9911 55.1008 20.5991C55.1589 20.2072 55.0595 19.8082 54.8242 19.4893C54.5889 19.1701 54.2366 18.957 53.8446 18.8969C53.4525 18.8368 53.0526 18.9345 52.7324 19.1686C52.11 19.627 51.4845 20.0823 50.862 20.541C50.158 20.0718 49.452 19.5936 48.748 19.1243C48.4733 18.9432 48.1466 18.8576 47.8183 18.8806L47.8183 18.8814Z" fill="#3A4D5C"/>
<path d="M60.7993 19.4458C60.7475 19.4469 60.6958 19.4507 60.6444 19.4571C60.2498 19.5002 59.8884 19.698 59.6395 20.0071C59.3905 20.3163 59.2743 20.7115 59.3163 21.1062C59.5172 23.0015 58.702 25.0073 57.2466 26.2417C57.2199 26.2666 57.194 26.2925 57.1692 26.3193C55.9331 27.5258 54.6961 29.0185 54.1477 31.001C52.9129 33.8949 53.0313 36.8614 53.0298 39.4789C53.0305 39.6758 53.07 39.8707 53.146 40.0524C53.222 40.2341 53.3331 40.3991 53.4728 40.5378C53.6126 40.6766 53.7784 40.7864 53.9606 40.8611C54.1429 40.9357 54.3381 40.9739 54.535 40.9731C54.9309 40.9718 55.3101 40.8138 55.59 40.5339C55.8699 40.254 56.0278 39.8747 56.0292 39.4789C56.0307 36.7322 55.9685 34.2172 56.9035 32.0967C56.9356 32.0215 56.9615 31.9438 56.981 31.8643C57.2958 30.6322 58.1443 29.5564 59.2609 28.4665L59.1835 28.5329C61.4155 26.6398 62.6038 23.7122 62.2935 20.7854C62.254 20.417 62.0794 20.0763 61.8035 19.829C61.5276 19.5817 61.1699 19.4454 60.7994 19.4462L60.7993 19.4458Z" fill="#3A4D5C"/>
<path d="M60.6345 42.8316C61.7863 39.2816 65.6265 37.0414 68.2482 33.048C72.4074 27.6218 71.8234 20.0684 68.7548 14.6579C68.7509 14.6523 68.7469 14.641 68.7429 14.6353C67.0559 11.7597 64.2081 9.22431 60.9594 7.35832C57.7107 5.49245 54.0579 4.29943 50.6516 4.38896L50.6516 4.38403C44.2341 4.55233 39.9643 7.33285 36.0362 11.251C36.0113 11.2736 35.9863 11.2963 35.963 11.324C35.2925 12.0923 34.693 12.9348 34.127 13.8043C37.0388 11.7944 40.36 10.4937 44.6544 10.3811V10.3867C48.0606 10.2972 51.7134 11.4874 54.9621 13.3532C58.2109 15.2192 61.0587 17.7546 62.7457 20.6302C62.7497 20.6359 62.7536 20.6472 62.7576 20.6529C65.8261 26.0634 66.4101 33.6166 62.251 39.0428" fill="#FEBE40"/>
<path d="M55.7192 56.5339L46.2673 56.6001C46.0637 56.6017 45.8625 56.6447 45.676 56.7265C45.4895 56.8084 45.3217 56.9274 45.1827 57.0762C44.3014 58.0164 43.3623 59.1785 42.9359 60.7175C42.418 62.51 42.8015 64.2365 43.4672 65.6316C44.1373 67.036 45.0662 68.2156 45.8025 69.2286C45.8463 69.2874 45.8944 69.3429 45.9463 69.3946C46.5332 69.9885 46.6098 70.5853 46.5993 71.6414C46.5891 72.6974 46.3439 74.0684 46.8981 75.5815C47.03 75.9447 47.297 76.243 47.6434 76.4142C47.9898 76.5853 48.3889 76.6161 48.7575 76.5001C53.0962 75.1292 56.6663 71.8499 58.5303 67.7455C58.5619 67.6738 58.5878 67.5998 58.6078 67.524C59.4917 64.3253 58.8644 60.065 56.9809 57.2089C56.8435 57.0001 56.6561 56.8289 56.4357 56.711C56.2154 56.5931 55.9691 56.5322 55.7191 56.5337L55.7192 56.5339Z" fill="#FED883"/>
<path d="M51.0478 62.664C50.8338 62.681 50.6258 62.749 50.4387 62.8544C49.7163 63.263 49.4625 64.1802 49.8736 64.9013C50.554 66.1094 50.4854 67.3219 49.9087 68.9306C49.4051 70.3349 47.9083 73.0301 46.7461 74.9864C46.7943 75.1842 46.8238 75.3775 46.8984 75.581C47.0301 75.9444 47.297 76.2429 47.6434 76.4142C47.9899 76.5855 48.3891 76.6164 48.7579 76.5005C49.0111 76.4206 49.2509 76.3124 49.4987 76.2195C50.6621 74.2541 52.1161 71.6632 52.7316 69.9468C53.4727 67.8804 53.6755 65.5411 52.4856 63.4284C52.1982 62.9127 51.6359 62.6132 51.0478 62.664H51.0478Z" fill="#FEBE40"/>
<path d="M43.5018 49.3842C43.2591 49.385 43.0201 49.4449 42.8056 49.5585C42.591 49.6721 42.4073 49.8361 42.2701 50.0365C42.1329 50.2368 42.0464 50.4674 42.0181 50.7085C41.9897 50.9496 42.0203 51.194 42.1073 51.4206C43.0317 53.8259 43.9499 56.2316 44.8742 58.6368C44.9838 58.9228 45.1783 59.1683 45.4316 59.3405C45.6848 59.5126 45.9847 59.6031 46.2909 59.5997C49.4433 59.577 52.5905 59.5544 55.7428 59.5335C56.0433 59.5301 56.3359 59.4364 56.5826 59.2647C56.8293 59.093 57.0187 58.8512 57.1262 58.5706C58.0477 56.1878 58.9717 53.8036 59.8932 51.4208C59.9801 51.1941 60.0108 50.9496 59.9824 50.7085C59.954 50.4674 59.8676 50.2368 59.7304 50.0365C59.5932 49.8361 59.4094 49.6723 59.1949 49.5586C58.9803 49.445 58.7414 49.3852 58.4986 49.3843L43.5018 49.3842Z" fill="#3A4D5C"/>
<path d="M22.3001 41.8242C22.0719 41.815 21.8445 41.858 21.6354 41.9501C21.4263 42.0422 21.2411 42.1809 21.0937 42.3555C20.9678 42.5072 20.8729 42.6823 20.8148 42.8708C20.7566 43.0593 20.7362 43.2574 20.7547 43.4538C20.7732 43.6502 20.8302 43.841 20.9226 44.0153C21.015 44.1896 21.1408 44.3439 21.293 44.4694C23.9517 46.6736 24.9472 49.305 24.9453 52.1947C24.9434 55.0844 23.8339 58.2228 22.0566 61.0157C21.9512 61.1821 21.8796 61.3676 21.8458 61.5617C21.8121 61.7558 21.817 61.9547 21.8602 62.1469C21.9033 62.3391 21.984 62.5209 22.0974 62.6819C22.2109 62.843 22.355 62.9801 22.5215 63.0854C22.8562 63.2994 23.2622 63.3718 23.6502 63.2867C24.0383 63.2016 24.3767 62.9659 24.5911 62.6314C26.6081 59.462 27.9423 55.8316 27.9447 52.1945C27.9471 48.5574 26.5165 44.9103 23.2077 42.1671C22.9515 41.9554 22.6323 41.8349 22.3001 41.8244L22.3001 41.8242Z" fill="#DD527C"/>
<path d="M25.7874 54.8619C25.5167 54.8704 25.2534 54.9522 25.0254 55.0983C24.7973 55.2445 24.6132 55.4496 24.4924 55.692C24.4041 55.8685 24.3515 56.0608 24.3377 56.2577C24.3238 56.4546 24.349 56.6523 24.4117 56.8394C24.4744 57.0266 24.5735 57.1994 24.7032 57.3482C24.8329 57.497 24.9907 57.6187 25.1676 57.7063C31.1075 60.6238 34.0297 64.1653 35.3278 69.7038C35.329 69.7091 35.3376 69.7094 35.3388 69.715C35.7829 72.4089 36.0571 74.6464 35.7594 76.9425C35.7337 77.138 35.7469 77.3365 35.7981 77.527C35.8493 77.7174 35.9376 77.8959 36.0579 78.0522C36.1782 78.2084 36.3281 78.3394 36.4991 78.4376C36.6701 78.5359 36.8588 78.5996 37.0543 78.6248C37.4475 78.6735 37.8439 78.5646 38.157 78.322C38.4702 78.0793 38.6746 77.7227 38.7256 77.3298C39.089 74.5264 38.7481 71.9345 38.2829 69.1286C38.2766 69.0951 38.2692 69.0618 38.2607 69.0288C36.7883 62.7271 32.9952 58.1983 26.4957 55.006C26.2748 54.901 26.0317 54.8516 25.7873 54.8621L25.7874 54.8619Z" fill="#DD527C"/>
<path d="M30.0578 41.459C29.745 41.4424 29.4347 41.5241 29.1707 41.6928C28.9067 41.8616 28.7021 42.1088 28.5858 42.3998C28.2016 43.3603 27.8385 44.0626 27.3684 44.5469C26.8982 45.0314 26.2973 45.4066 25.0441 45.6205C24.6524 45.6868 24.303 45.9059 24.0726 46.2296C23.8423 46.5533 23.7498 46.9552 23.8156 47.3471C23.8819 47.7388 24.101 48.0883 24.4247 48.3186C24.7484 48.549 25.1504 48.6414 25.5422 48.5756C27.2636 48.2815 28.6028 47.5905 29.5266 46.6387C30.4504 45.687 30.9395 44.5784 31.3638 43.5176C31.5115 43.1492 31.507 42.7373 31.3514 42.3721C31.1958 42.007 30.9018 41.7184 30.5338 41.5697C30.3822 41.5071 30.2215 41.4698 30.0578 41.4592L30.0578 41.459Z" fill="#DD527C"/>
<path d="M27.3576 30.1365C26.9747 30.1157 26.5984 30.2425 26.3061 30.4906C24.9676 31.625 23.9832 32.9342 23.5945 34.464C23.2059 35.9937 23.4909 37.6485 24.3472 39.1899C24.5396 39.5376 24.8621 39.7947 25.244 39.9046C25.6258 40.0146 26.0357 39.9686 26.3836 39.7765C26.7313 39.5841 26.9884 39.2615 27.0984 38.8797C27.2084 38.4978 27.1623 38.0879 26.9702 37.74C26.3911 36.6975 26.307 35.9427 26.4943 35.2055C26.6816 34.4684 27.2154 33.6525 28.243 32.7817C28.3935 32.6545 28.5175 32.499 28.6079 32.3239C28.6982 32.1488 28.7532 31.9577 28.7697 31.7614C28.7861 31.565 28.7637 31.3674 28.7037 31.1798C28.6437 30.9921 28.5474 30.8181 28.4201 30.6677C28.2885 30.5115 28.1264 30.3838 27.9437 30.2925C27.761 30.2012 27.5615 30.1483 27.3576 30.1368L27.3576 30.1365Z" fill="#DD527C"/>
<path d="M29.6371 82.4652C29.4442 82.5088 29.2618 82.5902 29.1004 82.7047C28.9391 82.8192 28.802 82.9645 28.6971 83.1322C28.5921 83.2999 28.5214 83.4866 28.489 83.6818C28.4566 83.8769 28.4631 84.0766 28.5082 84.2692C28.5531 84.4612 28.6354 84.6423 28.7504 84.8024C28.8654 84.9625 29.0108 85.0984 29.1784 85.2022C29.346 85.306 29.5324 85.3759 29.7269 85.4076C29.9215 85.4393 30.1204 85.4323 30.3123 85.3871C33.0859 84.7433 35.4933 84.7789 36.9529 85.4533C38.4126 86.1277 39.255 87.2441 39.255 90.0243C39.2542 90.2212 39.2923 90.4165 39.367 90.5988C39.4416 90.781 39.5515 90.9467 39.6902 91.0864C39.829 91.2262 39.9939 91.3373 40.1756 91.4133C40.3573 91.4893 40.5522 91.5288 40.7492 91.5295C40.947 91.5303 41.1431 91.4919 41.3261 91.4166C41.5091 91.3412 41.6753 91.2303 41.8152 91.0904C41.9552 90.9505 42.066 90.7843 42.1414 90.6014C42.2167 90.4184 42.2551 90.2222 42.2544 90.0243C42.2544 86.4738 40.659 83.8651 38.2036 82.7306C35.7481 81.5961 32.7661 81.7389 29.6371 82.465V82.4652Z" fill="#DD527C"/>
<path d="M79.6843 41.8242C79.9125 41.815 80.1399 41.858 80.349 41.9501C80.558 42.0422 80.7433 42.1809 80.8906 42.3555C81.0166 42.5072 81.1114 42.6823 81.1696 42.8708C81.2278 43.0593 81.2482 43.2574 81.2297 43.4538C81.2112 43.6502 81.1541 43.841 81.0618 44.0153C80.9694 44.1896 80.8435 44.3439 80.6914 44.4694C78.0327 46.6736 77.0372 49.305 77.0391 52.1947C77.0409 55.0844 78.1504 58.2228 79.9277 61.0157C80.0332 61.1821 80.1048 61.3676 80.1385 61.5617C80.1722 61.7558 80.1674 61.9547 80.1242 62.1469C80.081 62.3391 80.0004 62.5209 79.8869 62.6819C79.7735 62.843 79.6294 62.9801 79.4629 63.0854C79.1282 63.2994 78.7222 63.3718 78.3342 63.2867C77.9461 63.2016 77.6077 62.9659 77.3932 62.6314C75.3763 59.462 74.0421 55.8316 74.0397 52.1945C74.0373 48.5574 75.4679 44.9103 78.7767 42.1671C79.0329 41.9554 79.3521 41.8349 79.6843 41.8244L79.6843 41.8242Z" fill="#DD527C"/>
<path d="M76.197 54.8619C76.4677 54.8704 76.731 54.9522 76.959 55.0983C77.187 55.2445 77.3712 55.4496 77.4919 55.692C77.5802 55.8685 77.6328 56.0608 77.6467 56.2577C77.6605 56.4546 77.6354 56.6523 77.5727 56.8394C77.5099 57.0266 77.4109 57.1994 77.2812 57.3482C77.1515 57.497 76.9936 57.6187 76.8168 57.7063C70.8768 60.6238 67.9547 64.1653 66.6566 69.7038C66.6553 69.7091 66.6467 69.7094 66.6455 69.715C66.2015 72.4089 65.9273 74.6464 66.225 76.9425C66.2506 77.138 66.2375 77.3365 66.1863 77.527C66.1351 77.7174 66.0468 77.8959 65.9265 78.0522C65.8062 78.2084 65.6563 78.3394 65.4853 78.4376C65.3143 78.5359 65.1256 78.5996 64.93 78.6248C64.5369 78.6735 64.1405 78.5646 63.8273 78.322C63.5142 78.0793 63.3098 77.7227 63.2588 77.3298C62.8954 74.5264 63.2363 71.9345 63.7015 69.1286C63.7078 69.0951 63.7151 69.0618 63.7237 69.0288C65.1961 62.7271 68.9891 58.1983 75.4887 55.006C75.7095 54.901 75.9527 54.8516 76.197 54.8621L76.197 54.8619Z" fill="#DD527C"/>
<path d="M71.9265 41.459C72.2394 41.4424 72.5497 41.5241 72.8137 41.6928C73.0777 41.8616 73.2823 42.1088 73.3985 42.3998C73.7827 43.3603 74.1459 44.0626 74.616 44.5469C75.0861 45.0314 75.6871 45.4066 76.9402 45.6205C77.332 45.6868 77.6814 45.9059 77.9118 46.2296C78.1421 46.5533 78.2345 46.9552 78.1687 47.3471C78.1025 47.7388 77.8834 48.0883 77.5597 48.3186C77.2359 48.549 76.834 48.6414 76.4422 48.5756C74.7208 48.2815 73.3816 47.5905 72.4578 46.6387C71.534 45.687 71.0448 44.5784 70.6205 43.5176C70.4729 43.1492 70.4773 42.7373 70.6329 42.3721C70.7885 42.007 71.0826 41.7184 71.4506 41.5697C71.6021 41.5071 71.7629 41.4698 71.9265 41.4592L71.9265 41.459Z" fill="#DD527C"/>
<path d="M74.6268 30.1365C75.0097 30.1157 75.3859 30.2425 75.6782 30.4906C77.0168 31.625 78.0012 32.9342 78.3898 34.464C78.7785 35.9937 78.4935 37.6485 77.6372 39.1899C77.4448 39.5376 77.1222 39.7947 76.7404 39.9046C76.3585 40.0146 75.9486 39.9686 75.6007 39.7765C75.2531 39.5841 74.996 39.2615 74.886 38.8797C74.776 38.4978 74.8221 38.0879 75.0142 37.74C75.5933 36.6975 75.6774 35.9427 75.4901 35.2055C75.3028 34.4684 74.769 33.6525 73.7414 32.7817C73.5908 32.6545 73.4669 32.499 73.3765 32.3239C73.2861 32.1488 73.2312 31.9577 73.2147 31.7614C73.1983 31.565 73.2207 31.3674 73.2807 31.1798C73.3406 30.9921 73.437 30.8181 73.5643 30.6677C73.6959 30.5115 73.858 30.3838 74.0407 30.2925C74.2234 30.2012 74.4229 30.1483 74.6268 30.1368L74.6268 30.1365Z" fill="#DD527C"/>
<path d="M72.3473 82.4652C72.5402 82.5088 72.7226 82.5902 72.8839 82.7047C73.0453 82.8192 73.1824 82.9645 73.2873 83.1322C73.3922 83.2999 73.4629 83.4866 73.4954 83.6818C73.5278 83.8769 73.5213 84.0766 73.4762 84.2692C73.4313 84.4612 73.349 84.6423 73.234 84.8024C73.119 84.9625 72.9735 85.0984 72.806 85.2022C72.6384 85.306 72.452 85.3759 72.2574 85.4076C72.0629 85.4393 71.864 85.4323 71.6721 85.3871C68.8984 84.7433 66.4911 84.7789 65.0315 85.4533C63.5718 86.1277 62.7294 87.2441 62.7294 90.0243C62.7301 90.2212 62.6921 90.4165 62.6174 90.5988C62.5427 90.781 62.4329 90.9467 62.2941 91.0864C62.1554 91.2262 61.9905 91.3373 61.8088 91.4133C61.6271 91.4893 61.4322 91.5288 61.2352 91.5295C61.0373 91.5303 60.8413 91.4919 60.6583 91.4166C60.4753 91.3412 60.3091 91.2303 60.1691 91.0904C60.0292 90.9505 59.9184 90.7843 59.843 90.6014C59.7676 90.4184 59.7292 90.2222 59.73 90.0243C59.73 86.4738 61.3254 83.8651 63.7808 82.7306C66.2363 81.5961 69.2183 81.7389 72.3473 82.465V82.4652Z" fill="#DD527C"/>
<path d="M25.8916 4.57062C25.6205 4.5605 25.3517 4.62412 25.1139 4.75471C24.8761 4.8853 24.6782 5.07797 24.5413 5.31216C24.4431 5.48293 24.3796 5.67134 24.3542 5.86668C24.3289 6.06201 24.3423 6.26044 24.3937 6.45059C24.4451 6.64074 24.5335 6.81893 24.6538 6.97492C24.774 7.13091 24.9239 7.26164 25.0947 7.3597L30.4847 10.4697C30.8282 10.6689 31.2367 10.7237 31.6206 10.622C32.0045 10.5203 32.3323 10.2705 32.5322 9.92742C32.6304 9.75666 32.6939 9.56824 32.7193 9.37291C32.7446 9.17758 32.7311 8.97923 32.6797 8.78908C32.6284 8.59894 32.54 8.42073 32.4197 8.26475C32.2995 8.10876 32.1496 7.97803 31.9788 7.87997L26.5888 4.76993C26.3762 4.64738 26.1368 4.57888 25.8916 4.57045V4.57062Z" fill="#FED883"/>
<path d="M20.7451 11.809C20.4316 11.8234 20.1305 11.9358 19.8843 12.1304C19.6381 12.325 19.4591 12.592 19.3726 12.8937C19.2612 13.2753 19.3058 13.6855 19.4968 14.0342C19.6877 14.3828 20.0093 14.6414 20.3909 14.753L27.2197 16.7231C27.6013 16.8346 28.0115 16.7899 28.3602 16.5989C28.7089 16.408 28.9675 16.0864 29.0791 15.7049C29.1341 15.5152 29.151 15.3165 29.129 15.1203C29.107 14.924 29.0464 14.734 28.9508 14.5613C28.8551 14.3885 28.7263 14.2364 28.5717 14.1135C28.4171 13.9907 28.2397 13.8996 28.0498 13.8455L21.221 11.8644C21.0664 11.8201 20.9057 11.801 20.7451 11.8077L20.7451 11.809Z" fill="#FED883"/>
<path d="M77.0368 4.57083C76.8218 4.59269 76.6142 4.66074 76.428 4.77031L71.038 7.88035C70.8672 7.97841 70.7174 8.10914 70.5971 8.26512C70.4768 8.42111 70.3885 8.59932 70.3371 8.78946C70.2857 8.9796 70.2723 9.17795 70.2976 9.37328C70.3229 9.56862 70.3865 9.75703 70.4846 9.9278C70.6845 10.2709 71.0124 10.5207 71.3962 10.6224C71.7801 10.7241 72.1886 10.6693 72.5321 10.4701L77.9222 7.36008C78.093 7.26201 78.2428 7.13129 78.3631 6.9753C78.4834 6.81931 78.5717 6.64111 78.6231 6.45096C78.6745 6.26081 78.6879 6.06239 78.6626 5.86705C78.6373 5.67171 78.5737 5.4833 78.4756 5.31254C78.3318 5.06422 78.1199 4.86232 77.8648 4.73088C77.6098 4.59943 77.3224 4.54398 77.0368 4.571V4.57083Z" fill="#FED883"/>
<path d="M82.1837 11.809C82.0526 11.8108 81.9224 11.8299 81.7963 11.8656L74.9675 13.8467C74.7776 13.9008 74.6002 13.9919 74.4456 14.1148C74.291 14.2376 74.1621 14.3897 74.0665 14.5625C73.9708 14.7353 73.9103 14.9253 73.8883 15.1215C73.8662 15.3178 73.8832 15.5164 73.9382 15.7061C74.0498 16.0877 74.3084 16.4092 74.6571 16.6002C75.0057 16.7911 75.416 16.8358 75.7976 16.7243L82.6264 14.7543C83.0079 14.6427 83.3295 14.3841 83.5205 14.0354C83.7114 13.6867 83.7561 13.2765 83.6446 12.8949C83.5537 12.5789 83.3615 12.3016 83.0975 12.1056C82.8335 11.9096 82.5124 11.8059 82.1837 11.8103V11.809Z" fill="#FED883"/>
<path d="M50.6514 4.38507C44.2339 4.55337 39.9671 7.33389 36.0389 11.252C36.0134 11.2747 35.9868 11.303 35.9628 11.3251C31.9172 15.9606 29.5471 22.644 31.5937 28.8951C33.1899 34.0142 37.4679 36.8981 39.998 40.2455C40.0099 40.2568 40.023 40.2681 40.036 40.2851C42.21 42.9653 42.2408 46.8144 42.0155 50.6544C41.976 50.9119 42.0043 51.1754 42.0976 51.4187L44.5486 57.7791C43.8854 58.581 43.2689 59.5333 42.9409 60.6956C42.4072 62.501 42.8037 64.2314 43.4739 65.6358C44.144 67.0402 45.0715 68.2129 45.8078 69.2259C45.8531 69.2872 45.903 69.3449 45.9571 69.3987C46.5439 69.9925 46.6147 70.577 46.6042 71.6331C46.594 72.6892 46.3487 74.0702 46.9029 75.5835C47.0352 75.947 47.3028 76.2452 47.6499 76.416C47.997 76.5868 48.3966 76.617 48.7654 76.5C53.1041 75.1291 56.6732 71.8515 58.5372 67.7471C58.5674 67.6749 58.5919 67.6004 58.6104 67.5244C59.4255 64.5749 58.9439 60.7329 57.3893 57.9107C58.2246 55.747 59.0536 53.5818 59.8901 51.4186C59.9622 51.229 59.995 51.0267 59.9867 50.824H59.9897C59.8803 48.2954 59.8103 44.7949 60.5841 42.9381C60.6023 42.8984 60.6187 42.865 60.634 42.827C61.7858 39.277 65.626 37.0369 68.2477 33.0434C72.4068 27.6173 71.8229 20.0639 68.7543 14.6534C68.7498 14.6477 68.7469 14.6364 68.7424 14.6307C67.0554 11.7551 64.2076 9.22266 60.9589 7.35668C57.7102 5.49081 54.0574 4.29787 50.6511 4.3874L50.6514 4.38507ZM77.1061 4.56354C77.0826 4.56487 77.0591 4.5668 77.0357 4.56924C76.8207 4.59088 76.613 4.6587 76.4266 4.76812L71.0385 7.87807C70.8677 7.97613 70.718 8.10683 70.5977 8.26276C70.4775 8.4187 70.3892 8.59676 70.3378 8.78684C70.2864 8.97692 70.2729 9.1753 70.2982 9.37058C70.3235 9.56585 70.3869 9.75426 70.485 9.925C70.685 10.2679 71.0128 10.5173 71.3965 10.6189C71.7802 10.7205 72.1885 10.6658 72.5319 10.4667L77.923 7.35685C78.0938 7.25879 78.2435 7.12801 78.3637 6.97207C78.484 6.81614 78.5723 6.63807 78.6237 6.448C78.6751 6.25792 78.6886 6.05962 78.6633 5.86435C78.638 5.66907 78.5745 5.48066 78.4765 5.30992C78.3386 5.07164 78.1378 4.87588 77.8961 4.74417C77.6543 4.61245 77.381 4.54984 77.106 4.56319L77.1061 4.56354ZM25.7663 4.56924C25.5167 4.58095 25.274 4.65481 25.0602 4.7842C24.8464 4.91359 24.6684 5.09438 24.5422 5.31009C24.4442 5.48084 24.3807 5.66924 24.3554 5.86452C24.3302 6.05979 24.3436 6.25809 24.395 6.44817C24.4464 6.63825 24.5347 6.81631 24.655 6.97225C24.7752 7.12818 24.925 7.25897 25.0957 7.35702L30.4868 10.4669C30.8302 10.6659 31.2385 10.7206 31.6222 10.6191C32.0059 10.5175 32.3337 10.268 32.5337 9.92518C32.6318 9.75443 32.6952 9.56603 32.7205 9.37075C32.7458 9.17548 32.7323 8.97709 32.6809 8.78701C32.6295 8.59694 32.5412 8.41887 32.421 8.26294C32.3007 8.107 32.151 7.9763 31.9802 7.87825L26.5891 4.76829C26.3766 4.64599 26.1373 4.57773 25.8922 4.56942C25.8503 4.56765 25.8082 4.56765 25.7663 4.56942V4.56924ZM50.7275 7.37458C53.3449 7.30601 56.5783 8.30573 59.454 9.95734C62.3241 11.6058 64.8315 13.9023 66.1482 16.1391C66.1512 16.1436 66.1573 16.1448 66.1601 16.1504C68.7024 20.6524 69.0979 27.0258 65.8497 31.2373C65.8275 31.2713 65.8077 31.3036 65.7882 31.3371C63.7214 34.5224 59.4147 36.9715 57.8026 41.8673C56.8165 44.3022 57.0307 47.037 57.132 49.3785H51.0001H44.9765C45.1295 45.7347 45.0304 41.6829 42.3586 38.3884C39.4204 34.5197 35.6572 31.8697 34.4492 27.984C34.4492 27.9784 34.4492 27.9671 34.4492 27.9614C32.8238 22.997 34.7391 17.3109 38.2091 13.3225C41.8734 9.67988 45.1298 7.5222 50.7278 7.3751L50.7275 7.37458ZM20.7471 11.8057V11.8086C20.4336 11.8227 20.1324 11.9349 19.886 12.1293C19.6396 12.3237 19.4604 12.5905 19.3737 12.8921C19.3185 13.0811 19.3011 13.2792 19.3224 13.4749C19.3438 13.6706 19.4035 13.8603 19.4981 14.033C19.5927 14.2056 19.7205 14.358 19.874 14.4813C20.0275 14.6046 20.2038 14.6965 20.3928 14.7517L27.2217 16.7224C27.4107 16.7776 27.6087 16.795 27.8045 16.7737C28.0002 16.7524 28.1898 16.6926 28.3625 16.598C28.5352 16.5034 28.6875 16.3756 28.8108 16.2221C28.9341 16.0686 29.026 15.8923 29.0812 15.7033C29.1361 15.5136 29.1531 15.3148 29.131 15.1185C29.1089 14.9221 29.0482 14.7321 28.9524 14.5593C28.8566 14.3865 28.7276 14.2343 28.5728 14.1116C28.418 13.9888 28.2405 13.8978 28.0504 13.8439L21.2215 11.8613C21.0674 11.8172 20.9073 11.7981 20.7471 11.8047L20.7471 11.8057ZM82.1838 11.8086C82.053 11.8105 81.9231 11.8297 81.7972 11.8653L74.9683 13.8449C74.7783 13.8988 74.6007 13.9898 74.446 14.1126C74.2912 14.2354 74.1622 14.3875 74.0664 14.5603C73.9706 14.7331 73.9099 14.9232 73.8878 15.1195C73.8657 15.3158 73.8826 15.5146 73.9376 15.7044C73.9927 15.8934 74.0846 16.0697 74.2079 16.2232C74.3312 16.3767 74.4836 16.5044 74.6562 16.599C74.8289 16.6937 75.0185 16.7534 75.2143 16.7747C75.41 16.7961 75.6081 16.7787 75.7971 16.7235L82.626 14.7526C82.815 14.6974 82.9913 14.6056 83.1448 14.4823C83.2983 14.359 83.426 14.2067 83.5206 14.034C83.6152 13.8613 83.6749 13.6717 83.6963 13.4759C83.7176 13.2802 83.7002 13.0822 83.645 12.8932C83.5539 12.5773 83.3615 12.3003 83.0975 12.1045C82.8335 11.9087 82.5125 11.8051 82.1838 11.8096L82.1838 11.8086ZM47.9222 18.8748C47.8674 18.8737 47.8127 18.8755 47.7582 18.8804V18.8861C47.5412 18.9101 47.332 18.9813 47.1454 19.0946C46.9587 19.2079 46.7991 19.3605 46.6776 19.5419C46.5668 19.7057 46.4894 19.8898 46.45 20.0837C46.4106 20.2775 46.4099 20.4772 46.448 20.6713C46.4861 20.8654 46.5623 21.0499 46.672 21.2145C46.7818 21.379 46.923 21.5202 47.0876 21.6299C48.0855 22.2951 49.0826 22.95 50.0804 23.6153C50.3373 23.7878 50.6412 23.8765 50.9505 23.8694C51.2598 23.8623 51.5594 23.7597 51.8081 23.5756C52.7109 22.9103 53.611 22.2437 54.5139 21.5785C54.6723 21.4611 54.806 21.3137 54.9073 21.1446C55.0087 20.9755 55.0757 20.7881 55.1046 20.593C55.1334 20.398 55.1235 20.1992 55.0754 20.008C55.0273 19.8168 54.942 19.637 54.8243 19.4788C54.5876 19.1631 54.2359 18.9535 53.8456 18.8953C53.4553 18.8372 53.0578 18.9353 52.7393 19.1683C52.1215 19.6233 51.4918 20.0807 50.874 20.5359C50.167 20.065 49.4579 19.6016 48.7509 19.1303C48.5058 18.9655 48.2175 18.8767 47.9222 18.8752L47.9222 18.8748ZM41.5501 19.4428C41.1973 19.4665 40.8642 19.614 40.6097 19.8594C40.3552 20.1049 40.1956 20.4324 40.1591 20.784C39.8489 23.7108 41.0429 26.6394 43.2749 28.5324L43.19 28.4593C44.3067 29.5491 45.1593 30.63 45.4742 31.8621C45.4969 31.9424 45.5262 32.0206 45.562 32.0961C46.497 34.2165 46.4155 36.7258 46.4171 39.4726C46.4167 39.6699 46.4553 39.8656 46.5306 40.048C46.606 40.2304 46.7166 40.3961 46.8562 40.5357C46.9958 40.6752 47.1615 40.7859 47.344 40.8613C47.5264 40.9367 47.7219 40.9751 47.9193 40.9747C48.1167 40.9751 48.3122 40.9367 48.4946 40.8613C48.6771 40.7859 48.8428 40.6752 48.9824 40.5357C49.122 40.3961 49.2326 40.2304 49.308 40.048C49.3834 39.8656 49.422 39.6699 49.4216 39.4726C49.4201 36.864 49.5504 33.9118 48.3293 31.0273C47.7866 29.0257 46.5306 27.5236 45.2867 26.3096C45.263 26.2873 45.2386 26.2658 45.2136 26.245C43.7582 25.0107 42.9394 23.0011 43.1403 21.1058C43.183 20.7105 43.0669 20.3144 42.8176 20.0047C42.5682 19.695 42.2061 19.497 41.8108 19.4543C41.7245 19.4429 41.6373 19.4391 41.5502 19.4429L41.5501 19.4428ZM60.8567 19.4485C60.7872 19.4474 60.7177 19.4512 60.6488 19.4598C60.254 19.5026 59.8924 19.7001 59.6431 20.0092C59.3939 20.3183 59.2774 20.7136 59.3193 21.1085C59.5202 23.0038 58.7014 25.0163 57.246 26.2506C57.2199 26.2713 57.1945 26.2929 57.1698 26.3152C55.926 27.5293 54.67 29.0313 54.1273 31.0328C52.9062 33.9174 53.0365 36.8667 53.035 39.4752C53.0346 39.6726 53.0732 39.8682 53.1486 40.0506C53.2239 40.233 53.3346 40.3987 53.4742 40.5383C53.6137 40.6778 53.7795 40.7885 53.9619 40.8639C54.1444 40.9393 54.3399 40.9779 54.5373 40.9775C54.9339 40.9752 55.3134 40.8157 55.5928 40.5341C55.8722 40.2526 56.0286 39.8719 56.0278 39.4752C56.0293 36.7285 55.9624 34.2221 56.8975 32.1016C56.9335 32.0251 56.9629 31.9456 56.9854 31.8642C57.3003 30.6321 58.1411 29.5513 59.2578 28.4614C61.437 26.5668 62.6038 23.68 62.2974 20.7892C62.2588 20.43 62.0918 20.0968 61.8271 19.8509C61.5623 19.605 61.2178 19.463 60.8567 19.451V19.4485ZM25.4032 21.8761V21.8791C25.3021 21.8764 25.2011 21.8841 25.1015 21.9018C16.0765 23.5194 10.3698 29.1874 8.43633 35.9988C6.86139 41.5473 7.71314 47.7941 10.8844 53.2907C5.24439 61.9495 8.99579 74.938 19.8042 78.123C19.1582 81.3298 19.6788 84.6412 21.1688 87.5524C24.0649 93.2113 30.4219 97.5256 38.3172 97.6171H38.3291C42.8839 97.6189 46.3964 96.5689 48.8272 94.6741C49.7117 93.9847 50.4336 93.1765 51 92.2934C51.5667 93.1773 52.2877 93.9842 53.1728 94.6741C55.6036 96.5689 59.1161 97.6189 63.671 97.6171C63.6749 97.6171 63.6789 97.6171 63.6829 97.6171C71.5781 97.5259 77.9352 93.2113 80.8313 87.5524C82.3264 84.6309 82.8465 81.3057 82.19 78.0879C92.982 74.8949 96.7481 61.9476 91.1127 53.2937C94.2856 47.7961 95.139 41.5485 93.5637 35.9988C91.6302 29.1874 85.9235 23.5223 76.8985 21.9047C76.8144 21.8899 76.7291 21.8824 76.6437 21.8821C76.2911 21.8798 75.949 22.0018 75.6775 22.2267C75.406 22.4517 75.2224 22.765 75.1591 23.1119C75.0899 23.502 75.178 23.9037 75.404 24.2291C75.6301 24.5545 75.9758 24.7772 76.3655 24.8485C84.4353 26.2948 89.0403 31.0339 90.6793 36.8078C92.3182 42.5818 90.8845 49.4773 86.2868 55.0075C86.0325 55.3131 85.91 55.7072 85.9462 56.1032C85.9825 56.4991 86.1745 56.8644 86.4801 57.1188C86.6321 57.244 86.8074 57.3382 86.9958 57.3957C87.1843 57.4531 87.3822 57.4728 87.5782 57.4538C87.7743 57.4347 87.9647 57.3773 88.1386 57.2846C88.3124 57.192 88.4663 57.0659 88.5914 56.9137C88.8259 56.6315 89.0446 56.3413 89.2649 56.0528C92.8601 63.0467 89.7807 72.7852 81.2764 75.2481C80.3933 73.2658 79.0109 71.3889 77.0537 69.7546C76.7885 69.537 76.4567 69.417 76.1137 69.4146C75.8911 69.4109 75.6705 69.4569 75.4679 69.5491C75.2653 69.6413 75.0858 69.7775 74.9424 69.9477C74.6867 70.2519 74.5622 70.6451 74.5963 71.041C74.6303 71.4369 74.8201 71.803 75.1239 72.0591C80.1081 76.2214 80.5293 81.5687 78.1636 86.1912C75.8008 90.8079 70.4802 94.5369 63.6712 94.625C59.582 94.6267 56.7609 93.6672 55.0179 92.3086C53.2749 90.9499 52.4966 89.209 52.4966 87.1313C52.4966 84.8068 52.9014 82.8163 53.6797 81.5675C54.458 80.3188 55.4644 79.6377 57.5421 79.6377C57.9388 79.6369 58.319 79.4791 58.5994 79.1986C58.8799 78.9182 59.0378 78.538 59.0385 78.1413C59.0378 77.7447 58.8799 77.3645 58.5994 77.084C58.319 76.8035 57.9388 76.6457 57.5421 76.6449C54.6541 76.6449 52.3819 77.969 51.132 79.9744C49.8821 81.9798 49.5038 84.4902 49.5038 87.1313C49.5038 89.209 48.7255 90.9499 46.9825 92.3086C45.2441 93.6636 42.4247 94.6216 38.3527 94.625C31.5314 94.5457 26.1997 90.8138 23.834 86.1912C21.4683 81.5687 21.8924 76.2214 26.8765 72.0591C27.5094 71.5258 27.5909 70.581 27.0581 69.9477C26.781 69.6202 26.3773 69.4248 25.9482 69.4146C25.5844 69.4032 25.2285 69.5239 24.9468 69.7546C22.9904 71.3883 21.6102 73.264 20.727 75.2452C12.2177 72.7808 9.12968 63.0345 12.7268 56.044C12.9493 56.3359 13.172 56.6257 13.409 56.9108C13.5342 57.0629 13.6881 57.189 13.8619 57.2817C14.0357 57.3744 14.2261 57.432 14.4222 57.451C14.6183 57.4701 14.8162 57.4502 15.0046 57.3927C15.1931 57.3353 15.3683 57.2413 15.5204 57.116C15.826 56.8617 16.018 56.4962 16.0542 56.1002C16.0905 55.7043 15.968 55.3101 15.7136 55.0045C11.1159 49.4743 9.68216 42.5819 11.3211 36.8079C12.9601 31.0339 17.5505 26.2949 25.6203 24.8486C25.8149 24.815 26.0009 24.7432 26.1677 24.6375C26.3345 24.5318 26.4788 24.3942 26.5922 24.2326C26.7057 24.071 26.7861 23.8885 26.8289 23.6957C26.8716 23.5029 26.8759 23.3036 26.8414 23.1091C26.7795 22.7701 26.6028 22.4627 26.341 22.2387C26.0791 22.0147 25.748 21.8878 25.4035 21.8792L25.4032 21.8761ZM27.2334 30.134C26.8937 30.1437 26.5674 30.2686 26.308 30.4881C24.9695 31.6225 23.985 32.9322 23.5964 34.4619C23.2078 35.9916 23.4926 37.6469 24.349 39.1883C24.5415 39.5354 24.864 39.7921 25.2455 39.9019C25.627 40.0117 26.0365 39.9656 26.3842 39.7739C26.7319 39.5818 26.9891 39.2597 27.0995 38.8781C27.2098 38.4965 27.1643 38.0867 26.9728 37.7387C26.3936 36.6962 26.3081 35.94 26.4955 35.2028C26.6828 34.4657 27.216 33.6519 28.2437 32.7811C28.3944 32.654 28.5185 32.4986 28.6091 32.3236C28.6996 32.1485 28.7547 31.9573 28.7713 31.7609C28.7879 31.5646 28.7656 31.3668 28.7057 31.1791C28.6459 30.9913 28.5495 30.8173 28.4223 30.6668C28.2908 30.5102 28.1287 30.3822 27.9459 30.2906C27.7631 30.1989 27.5635 30.1457 27.3593 30.1341C27.3174 30.1324 27.2754 30.1324 27.2334 30.1341V30.134ZM74.6287 30.134C74.4245 30.1456 74.2249 30.1989 74.0421 30.2905C73.8593 30.3821 73.6972 30.5101 73.5657 30.6667C73.4383 30.817 73.3418 30.9909 73.2817 31.1786C73.2215 31.3662 73.199 31.5639 73.2153 31.7602C73.2316 31.9566 73.2865 32.1478 73.3768 32.323C73.467 32.4981 73.5909 32.6537 73.7414 32.781C74.7691 33.6518 75.3024 34.4655 75.4896 35.2026C75.677 35.9398 75.5944 36.6961 75.0153 37.7386C74.8235 38.0863 74.7775 38.4958 74.8873 38.8773C74.9971 39.2589 75.2537 39.5813 75.6009 39.7739C75.7732 39.8693 75.9626 39.9298 76.1583 39.952C76.3539 39.9742 76.552 39.9576 76.7413 39.9032C76.9306 39.8489 77.1073 39.7577 77.2613 39.635C77.4154 39.5123 77.5437 39.3605 77.6391 39.1882C78.4954 37.6468 78.7803 35.9915 78.3917 34.4618C78.003 32.9321 77.0185 31.6224 75.68 30.488C75.3877 30.2399 75.0115 30.1132 74.6287 30.1339L74.6287 30.134ZM30.0592 41.4579C29.4177 41.4239 28.8247 41.8014 28.5863 42.398C28.2021 43.3585 27.8412 44.0601 27.371 44.5444C27.0456 44.8799 26.6416 45.1598 26.0181 45.3731C25.2985 44.2193 24.3753 43.1323 23.2069 42.1637C22.9515 41.9525 22.6333 41.8319 22.302 41.8207C22.0736 41.8117 21.8462 41.855 21.6371 41.9473C21.428 42.0396 21.2428 42.1787 21.0956 42.3535C20.9696 42.5053 20.8747 42.6804 20.8165 42.8689C20.7583 43.0574 20.7378 43.2554 20.7563 43.4519C20.7748 43.6483 20.8319 43.8392 20.9243 44.0135C21.0167 44.1878 21.1425 44.3421 21.2947 44.4677C23.9534 46.6718 24.9482 49.3031 24.9464 52.1928C24.9449 55.0825 23.8334 58.22 22.0561 61.0129C21.9506 61.1794 21.8789 61.365 21.8452 61.5592C21.8115 61.7534 21.8164 61.9523 21.8596 62.1446C21.9029 62.3369 21.9836 62.5188 22.0972 62.6798C22.2108 62.8409 22.3551 62.978 22.5217 63.0833C22.8565 63.2975 23.2626 63.3699 23.6508 63.2848C24.0391 63.1996 24.3776 62.964 24.5921 62.6293C25.4207 61.3272 26.124 59.944 26.677 58.5178C31.5949 61.2845 34.1465 64.663 35.3274 69.7013C35.3286 69.7066 35.3376 69.7069 35.3393 69.7125C35.7833 72.4064 36.0586 74.6436 35.7609 76.9396C35.653 77.762 36.2326 78.5145 37.0552 78.6205C37.8736 78.722 38.6182 78.1441 38.7244 77.3263C39.0879 74.5228 38.7476 71.9327 38.2822 69.1268C38.276 69.0928 38.2703 69.0601 38.2618 69.0272C36.8743 63.0887 33.3937 58.738 27.5617 55.5832C27.8024 54.4623 27.9445 53.3282 27.9453 52.1921C27.9462 50.8016 27.7351 49.4085 27.2923 48.0661C28.1886 47.7079 28.9509 47.233 29.5295 46.6369C30.4533 45.6852 30.9413 44.5761 31.3656 43.5153C31.673 42.7482 31.3031 41.8777 30.5369 41.5681C30.3853 41.5052 30.2231 41.4677 30.0595 41.4569L30.0592 41.4579ZM71.9258 41.4579C71.7622 41.4693 71.6029 41.5089 71.4514 41.5689C70.6851 41.8783 70.3123 42.7493 70.6197 43.5164C71.0441 44.5771 71.5349 45.6863 72.4587 46.638C73.0381 47.2348 73.7981 47.7117 74.696 48.0699C74.2537 49.4115 74.0392 50.8033 74.0401 52.193C74.041 53.329 74.1829 54.4632 74.4237 55.584C68.5916 58.7389 65.114 63.0896 63.7264 69.0281C63.7174 69.0621 63.7094 69.0938 63.7032 69.1278C63.2378 71.9338 62.8976 74.5237 63.261 77.3272C63.3672 78.1449 64.1148 78.723 64.9331 78.6216C65.7558 78.5156 66.3355 77.7631 66.2275 76.9406C65.9299 74.6446 66.2025 72.4072 66.6462 69.7134C66.6477 69.7077 66.657 69.7078 66.6581 69.7022C67.8388 64.6648 70.3924 61.2881 75.3085 58.5216C75.8612 59.9469 76.5653 61.3288 77.3934 62.6302C77.6079 62.9648 77.9464 63.2005 78.3346 63.2856C78.7229 63.3707 79.129 63.2982 79.4638 63.084C79.6304 62.9787 79.7747 62.8418 79.8883 62.6807C80.0019 62.5196 80.0826 62.3378 80.1259 62.1455C80.1691 61.9532 80.174 61.7543 80.1403 61.5601C80.1066 61.3659 80.0349 61.1803 79.9294 61.0138C78.1521 58.2208 77.0439 55.0832 77.0421 52.1935C77.0406 49.3038 78.035 46.6727 80.6937 44.4685C80.8459 44.343 80.9718 44.1887 81.0642 44.0144C81.1566 43.8401 81.2136 43.6491 81.2321 43.4527C81.2506 43.2563 81.2302 43.0583 81.172 42.8698C81.1137 42.6813 81.0189 42.506 80.8928 42.3542C80.7456 42.1794 80.5604 42.0405 80.3513 41.9482C80.1422 41.8559 79.9148 41.8125 79.6864 41.8216C79.3541 41.8321 79.0348 41.9526 78.7786 42.1644C77.6108 43.1325 76.6868 44.218 75.9674 45.3711C75.3457 45.158 74.9422 44.8802 74.6174 44.5451C74.1473 44.0606 73.7834 43.3592 73.3992 42.3987C73.1608 41.8019 72.5678 41.4248 71.9262 41.4588L71.9258 41.4579ZM45.6849 52.3865H56.3002C55.7654 53.7693 55.236 55.1561 54.7013 56.539L49.4449 56.5729C48.7292 56.5766 48.014 56.578 47.2984 56.5843L45.6849 52.3865ZM54.5871 59.5375C55.5473 61.4686 56.1478 64.7818 55.694 66.6035C55.0204 68.0405 53.9226 69.1482 52.669 70.1001C52.6883 70.0491 52.7143 69.9975 52.7335 69.9448C53.4745 67.8784 53.6774 65.5391 52.4875 63.4264C52.2001 62.9107 51.6378 62.6111 51.0497 62.662C50.8356 62.679 50.6277 62.747 50.4406 62.8524C49.7181 63.261 49.4644 64.1782 49.8755 64.8993C50.5559 66.1074 50.4875 67.3201 49.9106 68.9288C49.783 69.2847 49.6183 69.6534 49.4421 70.0297C49.2794 69.1568 48.9438 68.2532 48.2297 67.4587C47.4538 66.3911 46.659 65.341 46.1828 64.3429C45.7066 63.345 45.5384 62.4961 45.8226 61.5347C45.8227 61.5271 45.8227 61.5196 45.8226 61.512C45.9991 60.8752 46.5274 60.2332 47.0701 59.5911C48.7449 59.5797 50.4215 59.5683 52.0981 59.5513L54.5871 59.5375ZM34.1736 81.8983C32.73 81.8813 31.2021 82.1006 29.6376 82.4633C29.4448 82.5071 29.2625 82.5888 29.1014 82.7033C28.9402 82.8179 28.8033 82.9632 28.6985 83.1308C28.5938 83.2985 28.5232 83.4852 28.4908 83.6802C28.4585 83.8753 28.4651 84.0747 28.5101 84.2672C28.555 84.4592 28.6372 84.6405 28.7521 84.8007C28.8671 84.9608 29.0125 85.0968 29.1801 85.2007C29.3476 85.3046 29.534 85.3743 29.7286 85.4061C29.9232 85.4379 30.1221 85.4311 30.314 85.3859C33.0877 84.7421 35.4958 84.7759 36.9555 85.4504C38.4152 86.1248 39.2572 87.2414 39.2572 90.0215C39.2564 90.2184 39.2944 90.4136 39.3691 90.5958C39.4437 90.778 39.5535 90.9437 39.6922 91.0835C39.8309 91.2233 39.9957 91.3343 40.1773 91.4104C40.3589 91.4864 40.5537 91.526 40.7506 91.5267C40.9485 91.5275 41.1446 91.4892 41.3275 91.4138C41.5105 91.3385 41.6768 91.2276 41.8167 91.0877C41.9566 90.9477 42.0675 90.7814 42.1428 90.5984C42.2182 90.4155 42.2566 90.2194 42.2558 90.0215C42.2558 86.4711 40.6614 83.8645 38.2059 82.7299C36.9782 82.1627 35.6171 81.9137 34.1736 81.8983ZM67.8115 81.8983C66.3679 81.9153 65.0098 82.1624 63.7821 82.7299C61.3266 83.8645 59.7293 86.4711 59.7293 90.0215C59.7285 90.2194 59.7669 90.4155 59.8423 90.5984C59.9176 90.7814 60.0285 90.9477 60.1684 91.0877C60.3083 91.2276 60.4745 91.3385 60.6575 91.4138C60.8405 91.4892 61.0365 91.5275 61.2344 91.5267C61.4316 91.5264 61.6267 91.4871 61.8086 91.4112C61.9906 91.3353 62.1558 91.2244 62.2948 91.0846C62.4338 90.9447 62.5438 90.7789 62.6186 90.5965C62.6935 90.4141 62.7316 90.2187 62.7308 90.0215C62.7308 87.2414 63.5728 86.1248 65.0325 85.4504C66.4921 84.776 68.8974 84.7422 71.6711 85.3859C71.8632 85.4315 72.0624 85.4387 72.2573 85.4071C72.4522 85.3756 72.639 85.3058 72.8068 85.2019C72.9747 85.0979 73.1204 84.9619 73.2356 84.8015C73.3507 84.6411 73.4331 84.4595 73.4778 84.2672C73.5229 84.0745 73.5293 83.8747 73.4968 83.6795C73.4643 83.4843 73.3934 83.2976 73.2884 83.1299C73.1833 82.9622 73.046 82.817 72.8846 82.7026C72.7231 82.5882 72.5405 82.5068 72.3475 82.4633C70.783 82.1001 69.255 81.8827 67.8115 81.8983Z" fill="black"/>
</svg>
